<svg version="1" xmlns="http://www.w3.org/2000/svg" width="853.333" height="853.333" viewBox="0 0 640.000000 640.000000"><path d="M0 320v200h640V120H0v200zm272.3-15c-13.8 27-15 29-17.5 29-2.6 0-2.5-.3 8.9-22.8 17.5-34.5 18-35.2 20.9-35.2 2.4 0 1.8 1.3-12.3 29zm33.9-20.8c1.5 4.6 4.6 14.3 6.9 21.6 2.3 7.3 4.4 13.1 4.7 12.8.3-.3 2.4-9.9 4.6-21.3l4.2-20.8 3.3-.3c3.1-.3 3.3-.1 2.8 2-.3 1.3-2.7 13-5.3 26.1l-4.7 23.8-4.6-.3-4.5-.3-6.6-20.7c-3.6-11.4-6.8-20.9-7.1-21.3-.3-.3-2.5 9.1-4.9 21l-4.3 21.5h-6.4l4.9-24.8c2.7-13.6 5.1-25.3 5.3-26 .3-.7 2.2-1.2 4.8-1.2h4.3l2.6 8.2zm66.5-5.9c7.4 3.9 5.6 18.9-2.8 23.3l-2.8 1.4 2 3.4c1.1 1.8 3.2 7.5 4.8 12.5l2.9 9.2-3.5-.3c-3.6-.3-3.6-.3-6-8.8-3.3-11.4-4.9-13-12.9-13h-6.2l-1 4.7c-.6 2.7-1.6 7.6-2.2 11-1.2 6.2-1.3 6.3-4.5 6.3h-3.2l4.9-24.8c2.7-13.6 5.1-25.3 5.4-26.1.7-2 20.8-1.1 25.1 1.2zm-119.4 12.1c-.4 2.2-2.4 3.1-17.2 8.2-9.1 3.2-17.7 6.1-19.1 6.7-2.2.8-.5 1.6 13.7 7 15.6 5.9 16.3 6.3 16.3 8.9 0 1.6-.5 2.8-1 2.8-.6 0-9.8-3.4-20.5-7.6-19.2-7.6-19.5-7.7-18.8-10.3.3-1.4.6-2.7.7-2.7.3-.4 44.3-15.3 45.2-15.3.7-.1.9.9.7 2.3zm162.8 5.2c19 7.4 19.5 7.7 19.1 10.3-.3 2.5-1.7 3.1-23.3 10.5-12.6 4.3-23.2 7.6-23.5 7.4-.2-.3 0-1.6.5-2.9.7-2 3.6-3.3 19-8.4 9.9-3.3 18.1-6.2 18.1-6.5 0-.4-5.7-2.8-12.7-5.5-20.5-7.8-19.1-7.1-18.6-10 .3-1.4.8-2.5 1.2-2.5.3 0 9.4 3.4 20.2 7.6z"/><path d="M352.5 284.2c-.3 1.3-1.1 5.3-1.9 9l-1.4 6.8h7.2c7.9 0 10.6-1.2 13.1-6 2.1-4 1.9-7.6-.5-10-1.6-1.6-3.3-2-9-2-6.4 0-7 .2-7.5 2.2z"/></svg>